<svg width="300" height="275" viewBox="0 0 300 275" fill="none" xmlns="http://www.w3.org/2000/svg">
<g filter="url(#filter0_d_0_883)">
<rect x="20" y="10" width="260" height="235" rx="4" fill="white"/>
</g>
<rect x="36.2078" y="26.2069" width="230.286" height="202.586" fill="#FAFAFA" stroke="#E5E9EA"/>
<rect x="36.2078" y="127.5" width="230.286" height="0.791352" fill="#E5E9EA"/>
<rect x="36.2078" y="146.492" width="230.286" height="0.791352" fill="#E5E9EA"/>
<rect x="36.2078" y="165.485" width="230.286" height="0.791352" fill="#E5E9EA"/>
<rect x="36.2078" y="184.477" width="230.286" height="0.791352" fill="#E5E9EA"/>
<rect x="36.2078" y="51.5302" width="230.286" height="0.791352" fill="#E5E9EA"/>
<rect x="36.2078" y="32.5377" width="230.286" height="0.791352" fill="#E5E9EA"/>
<rect x="36.2078" y="70.5226" width="230.286" height="0.791352" fill="#E5E9EA"/>
<rect x="36.2078" y="89.5151" width="230.286" height="0.791352" fill="#E5E9EA"/>
<rect x="36.2078" y="108.508" width="230.286" height="0.791352" fill="#E5E9EA"/>
<rect x="36.2078" y="203.47" width="230.286" height="0.791352" fill="#E5E9EA"/>
<rect x="36.2078" y="222.462" width="230.286" height="0.791352" fill="#E5E9EA"/>
<path d="M42.2856 127.5H73.3506V173.147C73.3506 175.908 71.112 178.147 68.3506 178.147H47.2856C44.5242 178.147 42.2856 175.908 42.2856 173.147V127.5Z" fill="#242D52"/>
<path d="M42.2856 127.5H73.3506V160.485C73.3506 163.246 71.112 165.485 68.3506 165.485H47.2856C44.5242 165.485 42.2856 163.246 42.2856 160.485V127.5Z" fill="#F3603C"/>
<path d="M89.5585 127.234H120.623V92.6581C120.623 89.8967 118.385 87.6581 115.623 87.6581H94.5585C91.797 87.6581 89.5585 89.8967 89.5585 92.6581V127.234Z" fill="#F3603C"/>
<path d="M89.5585 127.234H120.623V179.224C120.623 181.986 118.385 184.224 115.623 184.224H94.5585C91.797 184.224 89.5585 181.986 89.5585 179.224V127.234Z" fill="#242D52"/>
<path d="M182.078 127.5H213.143V56.1926C213.143 53.4312 210.904 51.1926 208.143 51.1926H187.078C184.316 51.1926 182.078 53.4312 182.078 56.1926V127.5Z" fill="#242D52"/>
<path d="M182.078 127.5H213.143V75.2695C213.143 72.508 210.904 70.2695 208.143 70.2695H187.078C184.316 70.2695 182.078 72.508 182.078 75.2695V127.5Z" fill="#F3603C"/>
<path d="M229.351 127.5H260.416V185.977C260.416 188.738 258.177 190.977 255.416 190.977H234.351C231.589 190.977 229.351 188.738 229.351 185.977V127.5Z" fill="#242D52"/>
<path d="M229.351 127.5H260.416V173.282C260.416 176.043 258.177 178.282 255.416 178.282H234.351C231.589 178.282 229.351 176.043 229.351 173.282V127.5Z" fill="#F3603C"/>
<path d="M135.48 127.5H166.545V217.716C166.545 220.477 164.307 222.716 161.545 222.716H140.48C137.719 222.716 135.48 220.477 135.48 217.716V127.5Z" fill="#F3603C"/>
<path d="M135.48 127.5H166.545V160.586C166.545 163.348 164.307 165.586 161.545 165.586H140.48C137.719 165.586 135.48 163.348 135.48 160.586V127.5Z" fill="#242D52"/>
<defs>
<filter id="filter0_d_0_883" x="0" y="0" width="300" height="275" filterUnits="userSpaceOnUse" color-interpolation-filters="sRGB">
<feFlood flood-opacity="0" result="BackgroundImageFix"/>
<feColorMatrix in="SourceAlpha" type="matrix" values="0 0 0 0 0 0 0 0 0 0 0 0 0 0 0 0 0 0 127 0" result="hardAlpha"/>
<feOffset dy="10"/>
<feGaussianBlur stdDeviation="10"/>
<feColorMatrix type="matrix" values="0 0 0 0 0.311766 0 0 0 0 0.336514 0 0 0 0 0.386011 0 0 0 0.03 0"/>
<feBlend mode="normal" in2="BackgroundImageFix" result="effect1_dropShadow_0_883"/>
<feBlend mode="normal" in="SourceGraphic" in2="effect1_dropShadow_0_883" result="shape"/>
</filter>
</defs>
</svg>
