<svg width="300" height="275" viewBox="0 0 300 275" fill="none" xmlns="http://www.w3.org/2000/svg">
<g filter="url(#filter0_d_0_921)">
<rect x="20" y="10" width="260" height="235" rx="4" fill="white"/>
</g>
<rect x="36.2078" y="150.46" width="106.026" height="78.3333" rx="4" fill="#F3603C"/>
<path fill-rule="evenodd" clip-rule="evenodd" d="M97.9301 202.899C97.33 203.506 96.6012 203.809 95.7439 203.809C94.8865 203.809 94.1561 203.506 93.5527 202.899C92.9492 202.293 92.6475 201.557 92.6475 200.694C92.6475 199.843 92.9509 199.114 93.5576 198.507C94.1644 197.901 94.8931 197.597 95.7439 197.597C96.6012 197.597 97.33 197.901 97.9301 198.507C98.5302 199.114 98.8303 199.843 98.8303 200.694C98.8303 201.551 98.5302 202.286 97.9301 202.899ZM71.5153 211.911V197.805H69.3587L65.926 200.802V203.176L69.24 200.199V211.911H71.5153ZM59.2513 209.873V205.966H63.1489V204.185H59.2513V200.278H57.4706V204.185H53.5631V205.966H57.4706V209.873H59.2513ZM78.9369 211.703C78.6632 211.974 78.3351 212.109 77.9526 212.109C77.5767 212.109 77.2503 211.972 76.9733 211.698C76.6963 211.425 76.5578 211.1 76.5578 210.724C76.5578 210.341 76.6963 210.013 76.9733 209.74C77.2503 209.466 77.5767 209.329 77.9526 209.329C78.3351 209.329 78.6632 209.466 78.9369 209.74C79.2106 210.013 79.3475 210.341 79.3475 210.724C79.3475 211.106 79.2106 211.433 78.9369 211.703ZM86.5366 212.099C87.9875 212.099 89.1598 211.655 90.0534 210.768C90.947 209.881 91.3938 208.716 91.3938 207.272C91.3938 205.834 90.9553 204.728 90.0781 203.953C89.201 203.178 87.8787 202.791 86.1113 202.791H84.568L84.8747 199.872H90.7508V197.815H82.8863L82.1543 204.729H85.7848C87.9941 204.729 89.0988 205.603 89.0988 207.351C89.0988 208.142 88.8663 208.78 88.4014 209.265C87.9364 209.75 87.2983 209.992 86.4872 209.992C85.7815 209.992 85.1797 209.787 84.6818 209.379C84.1839 208.97 83.9349 208.356 83.9349 207.539C83.9349 207.374 83.958 207.136 84.0042 206.826L81.719 206.965C81.686 207.249 81.6695 207.486 81.6695 207.677C81.6695 208.594 81.8971 209.393 82.3521 210.076C82.8072 210.759 83.3974 211.266 84.1229 211.599C84.8483 211.932 85.6529 212.099 86.5366 212.099ZM96.832 211.921L104.291 197.785H102.312L94.8733 211.921H96.832ZM94.6557 201.787C94.9591 202.087 95.3218 202.237 95.7439 202.237C96.1791 202.237 96.5435 202.087 96.837 201.787C97.1305 201.487 97.2772 201.122 97.2772 200.694C97.2772 200.271 97.1288 199.912 96.832 199.615C96.5353 199.319 96.1725 199.17 95.7439 199.17C95.3218 199.17 94.9591 199.317 94.6557 199.61C94.3523 199.904 94.2006 200.265 94.2006 200.694C94.2006 201.122 94.3523 201.487 94.6557 201.787ZM103.529 212.079C104.38 212.079 105.104 211.776 105.701 211.169C106.297 210.562 106.596 209.834 106.596 208.983C106.596 208.126 106.296 207.395 105.696 206.792C105.096 206.188 104.373 205.887 103.529 205.887C102.672 205.887 101.94 206.188 101.333 206.792C100.726 207.395 100.423 208.126 100.423 208.983C100.423 209.84 100.725 210.571 101.328 211.174C101.932 211.777 102.665 212.079 103.529 212.079ZM102.431 210.066C102.728 210.366 103.094 210.516 103.529 210.516C103.951 210.516 104.314 210.366 104.617 210.066C104.921 209.766 105.072 209.405 105.072 208.983C105.072 208.561 104.919 208.198 104.612 207.895C104.306 207.591 103.945 207.44 103.529 207.44C103.094 207.44 102.728 207.588 102.431 207.885C102.134 208.182 101.986 208.548 101.986 208.983C101.986 209.405 102.134 209.766 102.431 210.066Z" fill="white"/>
<rect x="157.766" y="150.46" width="106.026" height="78.3333" rx="4" fill="#FAFAFA"/>
<path fill-rule="evenodd" clip-rule="evenodd" d="M212.695 211.911V209.853H206.186L210.331 205.56C210.997 204.868 211.485 204.218 211.795 203.612C212.105 203.005 212.26 202.342 212.26 201.623C212.26 200.37 211.841 199.384 211.003 198.666C210.166 197.947 209.088 197.587 207.769 197.587C206.364 197.587 205.249 197.98 204.425 198.765C203.601 199.549 203.188 200.674 203.188 202.138V202.929L205.454 203.147V202.108C205.454 201.191 205.662 200.524 206.077 200.105C206.493 199.686 207.06 199.477 207.779 199.477C208.464 199.477 209.008 199.666 209.411 200.046C209.813 200.425 210.014 200.954 210.014 201.633C210.014 202.51 209.543 203.434 208.6 204.403L202.961 210.19V211.911H212.695ZM179.87 212.099C180.806 212.099 181.647 211.931 182.393 211.594C183.138 211.251 183.73 210.75 184.168 210.091C184.607 209.431 184.826 208.67 184.826 207.806C184.826 206.955 184.608 206.213 184.173 205.58C183.738 204.947 183.148 204.466 182.402 204.136C182.93 203.826 183.345 203.422 183.649 202.924C183.952 202.426 184.104 201.871 184.104 201.257C184.104 200.189 183.703 199.314 182.902 198.631C182.101 197.949 181.09 197.607 179.87 197.607C178.63 197.607 177.608 197.947 176.803 198.626C175.999 199.305 175.596 200.182 175.596 201.257C175.596 201.871 175.751 202.426 176.061 202.924C176.371 203.422 176.797 203.826 177.337 204.136C176.579 204.459 175.984 204.937 175.552 205.57C175.12 206.203 174.904 206.949 174.904 207.806C174.904 208.67 175.123 209.431 175.562 210.091C176 210.75 176.594 211.25 177.342 211.589C178.091 211.929 178.933 212.099 179.87 212.099ZM179.87 203.434C179.263 203.434 178.752 203.237 178.337 202.845C177.921 202.453 177.713 201.966 177.713 201.386C177.713 200.819 177.921 200.342 178.337 199.957C178.752 199.571 179.263 199.378 179.87 199.378C180.47 199.378 180.978 199.571 181.393 199.957C181.809 200.342 182.017 200.819 182.017 201.386C182.017 201.96 181.807 202.444 181.388 202.84C180.97 203.236 180.463 203.434 179.87 203.434ZM177.951 209.359C178.459 209.814 179.098 210.041 179.87 210.041C180.628 210.041 181.261 209.812 181.769 209.354C182.277 208.896 182.531 208.291 182.531 207.539C182.531 206.794 182.277 206.197 181.769 205.748C181.261 205.3 180.628 205.076 179.87 205.076C179.098 205.076 178.459 205.3 177.951 205.748C177.443 206.197 177.189 206.794 177.189 207.539C177.189 208.297 177.443 208.904 177.951 209.359ZM190.947 212.099C191.883 212.099 192.724 211.931 193.469 211.594C194.215 211.251 194.807 210.75 195.245 210.091C195.684 209.431 195.903 208.67 195.903 207.806C195.903 206.955 195.685 206.213 195.25 205.58C194.815 204.947 194.225 204.466 193.479 204.136C194.007 203.826 194.422 203.422 194.726 202.924C195.029 202.426 195.181 201.871 195.181 201.257C195.181 200.189 194.78 199.314 193.979 198.631C193.178 197.949 192.167 197.607 190.947 197.607C189.707 197.607 188.685 197.947 187.88 198.626C187.076 199.305 186.673 200.182 186.673 201.257C186.673 201.871 186.828 202.426 187.138 202.924C187.448 203.422 187.874 203.826 188.414 204.136C187.656 204.459 187.061 204.937 186.629 205.57C186.197 206.203 185.981 206.949 185.981 207.806C185.981 208.67 186.2 209.431 186.639 210.091C187.077 210.75 187.671 211.25 188.419 211.589C189.168 211.929 190.01 212.099 190.947 212.099ZM189.414 202.845C189.829 203.237 190.34 203.434 190.947 203.434C191.54 203.434 192.047 203.236 192.465 202.84C192.884 202.444 193.094 201.96 193.094 201.386C193.094 200.819 192.886 200.342 192.47 199.957C192.055 199.571 191.547 199.378 190.947 199.378C190.34 199.378 189.829 199.571 189.414 199.957C188.998 200.342 188.79 200.819 188.79 201.386C188.79 201.966 188.998 202.453 189.414 202.845ZM190.947 210.041C190.175 210.041 189.536 209.814 189.028 209.359C188.52 208.904 188.266 208.297 188.266 207.539C188.266 206.794 188.52 206.197 189.028 205.748C189.536 205.3 190.175 205.076 190.947 205.076C191.705 205.076 192.338 205.3 192.846 205.748C193.354 206.197 193.608 206.794 193.608 207.539C193.608 208.291 193.354 208.896 192.846 209.354C192.338 209.812 191.705 210.041 190.947 210.041ZM200.367 211.703C200.093 211.974 199.765 212.109 199.382 212.109C199.007 212.109 198.68 211.972 198.403 211.698C198.126 211.425 197.988 211.1 197.988 210.724C197.988 210.341 198.126 210.013 198.403 209.74C198.68 209.466 199.007 209.329 199.382 209.329C199.765 209.329 200.093 209.466 200.367 209.74C200.64 210.013 200.777 210.341 200.777 210.724C200.777 211.106 200.64 211.433 200.367 211.703ZM222.397 209.151V211.911H220.122V209.151H213.494V207.094L218.925 197.805H222.397V207.103H224.336V209.151H222.397ZM220.122 207.103H215.71L220.122 199.269V207.103ZM230.437 202.899C229.837 203.506 229.108 203.809 228.251 203.809C227.393 203.809 226.663 203.506 226.059 202.899C225.456 202.293 225.154 201.557 225.154 200.694C225.154 199.843 225.458 199.114 226.064 198.507C226.671 197.901 227.4 197.597 228.251 197.597C229.108 197.597 229.837 197.901 230.437 198.507C231.037 199.114 231.337 199.843 231.337 200.694C231.337 201.551 231.037 202.286 230.437 202.899ZM229.339 211.921L236.798 197.785H234.819L227.38 211.921H229.339ZM227.162 201.787C227.466 202.087 227.829 202.237 228.251 202.237C228.686 202.237 229.05 202.087 229.344 201.787C229.637 201.487 229.784 201.122 229.784 200.694C229.784 200.271 229.636 199.912 229.339 199.615C229.042 199.319 228.679 199.17 228.251 199.17C227.829 199.17 227.466 199.317 227.162 199.61C226.859 199.904 226.707 200.265 226.707 200.694C226.707 201.122 226.859 201.487 227.162 201.787ZM236.036 212.079C236.887 212.079 237.611 211.776 238.207 211.169C238.804 210.562 239.103 209.834 239.103 208.983C239.103 208.126 238.803 207.395 238.202 206.792C237.602 206.188 236.88 205.887 236.036 205.887C235.179 205.887 234.447 206.188 233.84 206.792C233.233 207.395 232.93 208.126 232.93 208.983C232.93 209.84 233.231 210.571 233.835 211.174C234.438 211.777 235.172 212.079 236.036 212.079ZM234.938 210.066C235.235 210.366 235.601 210.516 236.036 210.516C236.458 210.516 236.821 210.366 237.124 210.066C237.428 209.766 237.579 209.405 237.579 208.983C237.579 208.561 237.426 208.198 237.119 207.895C236.813 207.591 236.451 207.44 236.036 207.44C235.601 207.44 235.235 207.588 234.938 207.885C234.641 208.182 234.493 208.548 234.493 208.983C234.493 209.405 234.641 209.766 234.938 210.066Z" fill="#1E272E"/>
<rect x="36.2078" y="26.2069" width="227.584" height="108.046" rx="4" fill="#FAFAFA"/>
<path fill-rule="evenodd" clip-rule="evenodd" d="M171.631 91.3932C170.351 92.6875 168.796 93.3347 166.967 93.3347C165.138 93.3347 163.58 92.6875 162.293 91.3932C161.006 90.0989 160.362 88.5303 160.362 86.6873C160.362 84.8725 161.009 83.3179 162.304 82.0236C163.598 80.7293 165.153 80.0822 166.967 80.0822C168.796 80.0822 170.351 80.7293 171.631 82.0236C172.912 83.3179 173.552 84.8725 173.552 86.6873C173.552 88.5162 172.912 90.0848 171.631 91.3932ZM70.3749 109.943C68.7851 110.66 66.9913 111.019 64.9934 111.019C62.9956 111.019 61.1983 110.656 59.6014 109.932C58.0045 109.207 56.7383 108.142 55.8027 106.735C54.8671 105.328 54.3993 103.703 54.3993 101.86C54.3993 100.031 54.8601 98.4415 55.7816 97.091C56.7031 95.7404 57.9729 94.7204 59.5909 94.0311C58.4372 93.3698 57.5297 92.5081 56.8684 91.446C56.2072 90.3838 55.8766 89.1985 55.8766 87.8902C55.8766 85.597 56.7348 83.7259 58.4512 82.2768C60.1677 80.8278 62.3484 80.1033 64.9934 80.1033C67.5963 80.1033 69.7524 80.8313 71.4618 82.2874C73.1712 83.7435 74.0259 85.6111 74.0259 87.8902C74.0259 89.1985 73.7023 90.3838 73.0551 91.446C72.4079 92.5081 71.5216 93.3698 70.396 94.0311C71.9859 94.7345 73.2451 95.7615 74.1736 97.1121C75.1022 98.4626 75.5665 100.045 75.5665 101.86C75.5665 103.703 75.0987 105.328 74.1631 106.735C73.2275 108.142 71.9648 109.211 70.3749 109.943ZM61.7223 91.2772C62.6087 92.1142 63.6991 92.5328 64.9934 92.5328C66.2597 92.5328 67.3395 92.1107 68.2329 91.2666C69.1263 90.4225 69.573 89.3885 69.573 88.1645C69.573 86.9546 69.1298 85.9382 68.2434 85.1152C67.3571 84.2921 66.2738 83.8806 64.9934 83.8806C63.6991 83.8806 62.6087 84.2921 61.7223 85.1152C60.836 85.9382 60.3928 86.9546 60.3928 88.1645C60.3928 89.4025 60.836 90.4401 61.7223 91.2772ZM64.9934 106.629C63.3473 106.629 61.9826 106.144 60.8993 105.173C59.816 104.203 59.2743 102.908 59.2743 101.29C59.2743 99.7007 59.816 98.4275 60.8993 97.4708C61.9826 96.5141 63.3473 96.0358 64.9934 96.0358C66.6114 96.0358 67.9621 96.5141 69.0454 97.4708C70.1287 98.4275 70.6704 99.7007 70.6704 101.29C70.6704 102.894 70.1287 104.185 69.0454 105.163C67.9621 106.141 66.6114 106.629 64.9934 106.629ZM96.4594 97.7451L86.7305 110.618H81.0957L89.1152 100.299C88.5102 100.425 87.8771 100.488 87.2159 100.488C85.5416 100.488 83.9799 100.095 82.5308 99.3067C81.0816 98.5189 79.8963 97.3618 78.9748 95.8353C78.0532 94.3089 77.5854 92.5609 77.5714 90.5913C77.5573 88.5795 78.0392 86.7682 79.017 85.1574C79.9948 83.5465 81.3032 82.3085 82.9423 81.4433C84.5814 80.5781 86.3787 80.1455 88.3344 80.1455C90.3322 80.1455 92.1506 80.5816 93.7897 81.4538C95.4288 82.3261 96.7267 83.5536 97.6834 85.1363C98.6401 86.719 99.1184 88.4951 99.1184 90.4647C99.1184 92.9267 98.2321 95.3535 96.4594 97.7451ZM88.461 96.8588C86.6601 96.8588 85.1864 96.2926 84.0397 95.1601C82.8931 94.0275 82.3127 92.5398 82.2986 90.6968C82.2846 88.882 82.8614 87.4083 84.0292 86.2758C85.1969 85.1433 86.6742 84.577 88.461 84.577C90.2759 84.577 91.7391 85.1257 92.8506 86.223C93.9621 87.3204 94.5178 88.7976 94.5178 90.6546C94.5178 92.4132 93.9515 93.8869 92.8189 95.0756C91.6864 96.2644 90.2337 96.8588 88.461 96.8588ZM108.225 110.175C107.641 110.751 106.941 111.04 106.125 111.04C105.323 111.04 104.627 110.748 104.036 110.164C103.445 109.58 103.149 108.887 103.149 108.085C103.149 107.27 103.445 106.57 104.036 105.986C104.627 105.402 105.323 105.11 106.125 105.11C106.941 105.11 107.641 105.402 108.225 105.986C108.809 106.57 109.101 107.27 109.101 108.085C109.101 108.901 108.809 109.598 108.225 110.175ZM120.349 110.618L134.51 84.3871V80.5253H113.596V84.8936H129.044L114.82 110.618H120.349ZM154.727 104.73V110.618H149.873V104.73H135.734V100.341L147.32 80.5253H154.727V100.362H158.864V104.73H154.727ZM149.873 100.362H140.461L149.873 83.6485V100.362ZM169.289 110.639L185.201 80.4831H180.98L165.11 110.639H169.289ZM164.646 89.0192C165.293 89.6593 166.067 89.9793 166.967 89.9793C167.896 89.9793 168.673 89.6593 169.299 89.0192C169.926 88.379 170.239 87.6018 170.239 86.6873C170.239 85.7869 169.922 85.0202 169.289 84.3871C168.656 83.754 167.882 83.4375 166.967 83.4375C166.067 83.4375 165.293 83.7505 164.646 84.3766C163.999 85.0026 163.675 85.7729 163.675 86.6873C163.675 87.6018 163.999 88.379 164.646 89.0192ZM183.576 110.977C185.391 110.977 186.935 110.329 188.209 109.035C189.482 107.741 190.118 106.186 190.118 104.371C190.118 102.542 189.478 100.984 188.198 99.6971C186.918 98.4099 185.377 97.7662 183.576 97.7662C181.747 97.7662 180.186 98.4099 178.891 99.6971C177.597 100.984 176.95 102.542 176.95 104.371C176.95 106.2 177.593 107.758 178.881 109.046C180.168 110.333 181.733 110.977 183.576 110.977ZM181.234 106.682C181.867 107.322 182.648 107.642 183.576 107.642C184.477 107.642 185.25 107.322 185.898 106.682C186.545 106.042 186.868 105.272 186.868 104.371C186.868 103.471 186.541 102.697 185.887 102.05C185.233 101.403 184.463 101.079 183.576 101.079C182.648 101.079 181.867 101.396 181.234 102.029C180.601 102.662 180.284 103.443 180.284 104.371C180.284 105.272 180.601 106.042 181.234 106.682Z" fill="#343A40"/>
<defs>
<filter id="filter0_d_0_921" x="0" y="0" width="300" height="275" filterUnits="userSpaceOnUse" color-interpolation-filters="sRGB">
<feFlood flood-opacity="0" result="BackgroundImageFix"/>
<feColorMatrix in="SourceAlpha" type="matrix" values="0 0 0 0 0 0 0 0 0 0 0 0 0 0 0 0 0 0 127 0" result="hardAlpha"/>
<feOffset dy="10"/>
<feGaussianBlur stdDeviation="10"/>
<feColorMatrix type="matrix" values="0 0 0 0 0.311766 0 0 0 0 0.336514 0 0 0 0 0.386011 0 0 0 0.03 0"/>
<feBlend mode="normal" in2="BackgroundImageFix" result="effect1_dropShadow_0_921"/>
<feBlend mode="normal" in="SourceGraphic" in2="effect1_dropShadow_0_921" result="shape"/>
</filter>
</defs>
</svg>
